<svg width="512" height="512" viewBox="0 0 512 512" fill="none" xmlns="http://www.w3.org/2000/svg">
  <rect width="512" height="512" rx="72" fill="#101827"/>
  <circle cx="382" cy="134" r="47" fill="#35D3C5"/>
  <path d="M281 122.5L207.5 196C169.1 234.4 169.1 296.6 207.5 335C245.9 373.4 308.1 373.4 346.5 335L379.5 302C394.8 286.7 394.8 261.9 379.5 246.6C364.2 231.3 339.4 231.3 324.1 246.6L291.1 279.6C283.3 287.4 270.7 287.4 262.9 279.6C255.1 271.8 255.1 259.2 262.9 251.4L336.4 177.9C344.2 170.1 356.8 170.1 364.6 177.9C372.4 185.7 372.4 198.3 364.6 206.1L345.6 225.1C331.7 239 330.8 261 343.5 276L421.2 198.3C459.6 159.9 459.6 97.7 421.2 59.3C382.8 20.9 320.6 20.9 282.2 59.3L208.7 132.8C194.8 146.7 193.9 168.7 206.6 183.7L281 122.5Z" fill="white"/>
  <path d="M231 389.5L304.5 316C342.9 277.6 342.9 215.4 304.5 177C266.1 138.6 203.9 138.6 165.5 177L132.5 210C117.2 225.3 117.2 250.1 132.5 265.4C147.8 280.7 172.6 280.7 187.9 265.4L220.9 232.4C228.7 224.6 241.3 224.6 249.1 232.4C256.9 240.2 256.9 252.8 249.1 260.6L175.6 334.1C167.8 341.9 155.2 341.9 147.4 334.1C139.6 326.3 139.6 313.7 147.4 305.9L166.4 286.9C180.3 273 181.2 251 168.5 236L90.8 313.7C52.4 352.1 52.4 414.3 90.8 452.7C129.2 491.1 191.4 491.1 229.8 452.7L303.3 379.2C317.2 365.3 318.1 343.3 305.4 328.3L231 389.5Z" fill="#35D3C5"/>
</svg>
